# xmcd
# 
# Track frame offsets:
#     150
#     29277
#     59892
#     89045
#     111395
#     139099
#     176670
#     213012
#     241437
#     263964
# 
# Disc length: 4152
# 
# Revision: 0
# Processed by: cddbd v1.5.2PL0 Copyright (c) Steve Scherf et al.
# Submitted via: BonkEnc v1.0beta4
# 
DISCID=9910360a
DTITLE=RANDY BRECKER w/MICHAEL BRECKER - SOME SKUNK FUNK
DYEAR=2005
DGENRE=Jazz
TTITLE0=SOME SKUNK FUNK
TTITLE1=SPONGE
TTITLE2=SHANGHIGH
TTITLE3=WAYNE OUT
TTITLE4=AND THEN SHE WEPT
TTITLE5=STRAP-HANGIN'
TTITLE6=LET IT GO
TTITLE7=FREEFALL
TTITLE8=LEVITATE
TTITLE9=SONG FOR BARRY
EXTD=YEAR: 2005
EXTT0=
EXTT1=
EXTT2=
EXTT3=
EXTT4=
EXTT5=
EXTT6=
EXTT7=
EXTT8=
EXTT9=
PLAYORDER=
